<svg width="627" height="638" viewBox="0 0 627 638" fill="none" xmlns="http://www.w3.org/2000/svg">
<path d="M529.996 637.595H97.9952C55.9953 634.595 -10.8422 594.79 1.49529 449.595C7.99565 373.095 74.4957 324.095 104.496 324.095C104.496 224.095 172.496 186.595 194.496 170.595C311.496 165.594 324.996 174.594 448.996 170.595C492.496 194.094 521.996 243.095 534.496 279.595C583.496 320.095 629.996 408.095 626.496 518.595C623.696 606.995 560.996 634.762 529.996 637.595Z" fill="#FFAB00"/>
<path d="M412.496 139.594H204.496C174.996 99.0945 158.996 48.5942 194.496 27.0958C315.496 -32.9029 361.996 21.5943 387.996 48.5945C480.496 48.5945 448.996 105.094 412.496 139.594Z" fill="#FFAB00"/>
<path d="M381 351.5V314C369 305 364 303 346.5 302V277H301.5V302C285.5 302 263.198 310 255.5 333.5C246 362.5 250.681 369.437 255.5 385.5C261.5 405.5 298 427 332 443C366 459 349 498 324.5 501C304.9 503.4 275.833 487.5 267 481.5C259 496.5 257.5 498.5 248 516C263.5 530.5 278.833 535.667 300.5 540V565H347V537C368.5 534.499 405.5 512.748 399.5 460.998C393.5 409.248 320.468 385.725 307 376.5C270.5 351.5 307 318.5 381 351.5Z" fill="#6200EA"/>
</svg>
